<?xml version="1.0" encoding="utf-8"?>
<!-- Generator: Adobe Illustrator 24.3.0, SVG Export Plug-In . SVG Version: 6.00 Build 0)  -->
<svg version="1.1" id="Layer_1" xmlns="http://www.w3.org/2000/svg" xmlns:xlink="http://www.w3.org/1999/xlink" x="0px" y="0px"
	 viewBox="0 0 3000 3000" style="enable-background:new 0 0 3000 3000;" xml:space="preserve">
<path d="M2623,1187.79l-581.39,150.94l15.6-45.98l-125.03,1.74l41.67-116.64l104.42,1.19l31.3-87.11l-103.09-0.26l36.4-96.86
	l102.28,0.51l33.45-92.44l-329.34,1.44l-119.92,140.21l55.94-141.23l-116.73,0.58l-182.03,485.42l117.73-0.9l76.93-207.68
	l-0.27,209.47l155.82,0.98l-551.04,145.41c-112.15,30.07-202.55,25.22-254.64-13.76c-131.36-96.94-29.52-290.11,7.04-347.37
	c-65.09,69.85-129.56,141.75-180.91,217.21c-79.44,122.39-114.4,254.05-60.6,339.55c95.49,153.48,325.31,83.85,471.38,24.46
	L2623,1187.79z M1789.98,1359.92l-6.12-244.61l164.46-192.96l8.4-8.25L1789.98,1359.92z M1460.18,1390.24l181.83-486.94
	l-116.81-0.51l-181.77,486.64L1460.18,1390.24z M1317.33,1388.59l181.88-486.52l-119.68-0.3l-80.87,213.16l20.93-211.8l-127.11-0.69
	l-180.73,485.8l115.01-0.42l87.78-233.8l-14.83,233.16L1317.33,1388.59z"/>
</svg>
